<?xml version="1.0" encoding="UTF-8"?>
<svg id="Layer_2" data-name="Layer 2" xmlns="http://www.w3.org/2000/svg" viewBox="0 0 228.63 293.03">
  <defs>
    <style>
      .cls-1 {
        fill: #fff;
      }
    </style>
  </defs>
  <g id="Layer_1-2" data-name="Layer 1">
    <g>
      <path class="cls-1" d="M7.69,292.03c-3.69,0-6.69-3-6.69-6.69V22.09c0-3.69,3-6.69,6.69-6.69h17.26c3.52,0,6.4-2.86,6.43-6.38l.06-3.61c.02-2.43,2-4.41,4.43-4.41h51.36c2.44,0,4.43,1.99,4.43,4.43v3.55c0,3.54,2.88,6.43,6.43,6.43h122.86c3.69,0,6.69,3,6.69,6.69v263.25c0,3.69-3,6.69-6.69,6.69H7.69Z"/>
      <path d="M87.22,2c1.89,0,3.43,1.54,3.43,3.43v3.55c0,4.09,3.33,7.43,7.43,7.43h122.86c3.14,0,5.69,2.55,5.69,5.69v263.25c0,3.14-2.55,5.69-5.69,5.69H7.69c-3.14,0-5.69-2.55-5.69-5.69V22.09c0-3.14,2.55-5.69,5.69-5.69h17.26c4.07,0,7.4-3.31,7.43-7.36l.06-3.64c.01-1.88,1.55-3.4,3.43-3.4h51.36M87.22,0h-51.36c-2.98,0-5.41,2.41-5.43,5.39l-.06,3.62c-.02,2.98-2.44,5.39-5.43,5.39H7.69c-4.25,0-7.69,3.44-7.69,7.69v263.25c0,4.25,3.44,7.69,7.69,7.69h213.25c4.25,0,7.69-3.44,7.69-7.69V22.09c0-4.25-3.44-7.69-7.69-7.69h-122.86c-3,0-5.43-2.43-5.43-5.43v-3.55c0-3-2.43-5.43-5.43-5.43h0Z"/>
    </g>
  </g>
</svg>