<?xml version="1.0" encoding="UTF-8"?>
<svg id="Layer_2" data-name="Layer 2" xmlns="http://www.w3.org/2000/svg" viewBox="0 0 82 299.06">
  <g id="Layer_1-2" data-name="Layer 1">
    <g>
      <polygon points="17.05 272.48 25.2 261.79 16.9 250.89 16.9 155.5 .5 155.5 .5 .5 81.5 .5 81.5 155.5 65.1 155.5 65.1 253.92 55.52 263.32 64.9 272.53 41 298.32 17.05 272.48"/>
      <path d="M81,1v154h-16.4v98.71l-9.07,8.9-.73.71.73.71,8.68,8.51-23.21,25.05-23.29-25.14,7.66-10.05.46-.61-.46-.61-7.97-10.46v-95.72H1V1h80M82,0H0v156h16.4v95.06l8.17,10.73-8.17,10.72,24.6,26.55,24.6-26.55-9.37-9.19,9.37-9.19v-98.13h16.4V0h0Z"/>
    </g>
  </g>
</svg>