<?xml version="1.0" encoding="UTF-8"?>
<svg id="Layer_1" data-name="Layer 1" xmlns="http://www.w3.org/2000/svg" viewBox="0 0 603.15 299.06">
  <g>
    <polygon points="17.05 272.48 25.2 261.79 16.9 250.89 16.9 155.5 .5 155.5 .5 .5 81.5 .5 81.5 155.5 65.1 155.5 65.1 253.92 55.52 263.32 64.9 272.53 41 298.32 17.05 272.48"/>
    <path d="M81,1v154h-16.4v98.71l-9.07,8.9-.73.71.73.71,8.68,8.51-23.21,25.05-23.29-25.14,7.66-10.05.46-.61-.46-.61-7.97-10.46v-95.72H1V1h80M82,0H0v156h16.4v95.06l8.17,10.73-8.17,10.72,24.6,26.55,24.6-26.55-9.37-9.19,9.37-9.19v-98.13h16.4V0h0Z"/>
  </g>
  <g>
    <polygon points="168.44 161.97 168.44 152.24 214.76 152.24 214.76 .5 295.76 .5 295.76 152.24 342.07 152.24 342.07 161.97 168.44 161.97"/>
    <path d="M295.26,1v151.74h46.31v8.73h-172.63v-8.73h46.32V1h80M296.26,0h-82v151.74h-46.32v10.73h174.63v-10.73h-46.31V0h0Z"/>
  </g>
  <g>
    <rect x="429.01" y="148.41" width="173.64" height="9.72"/>
    <path d="M602.15,148.91v8.72h-172.64v-8.72h172.64M603.15,147.91h-174.64v10.72h174.64v-10.72h0Z"/>
  </g>
</svg>